<?xml version="1.0" encoding="UTF-8"?>
<svg id="Layer_1" data-name="Layer 1" xmlns="http://www.w3.org/2000/svg" viewBox="0 0 512 512">
  <defs>
    <style>
      .cls-1 {
        stroke: #2a6fd3;
        stroke-miterlimit: 10;
      }

      .cls-1, .cls-2 {
        fill: #2a6fd3;
      }
    </style>
  </defs>
  <rect class="cls-2" y="124.35" width="512" height="387.65"/>
  <path class="cls-1" d="m492.49,117.48l-77.25-57.21C325.47-5.92,205.81-8.01,113.94,55L22.86,117.48v7.26l469.79.09-.17-7.35Z"/>
  <path class="cls-1" d="m493.01,124.74l-469.79.09.17-7.35,77.25-57.21C190.41-5.92,310.06-8.01,401.93,55l91.08,62.48v7.26Z"/>
  <path class="cls-2" d="m36.9,109.46l-21.82,19.93L-.48,124.22v-4.13c12.76-.73,25.34-4.22,36.67-10.25l.71-.38Z"/>
  <polygon class="cls-2" points="20.35 118.82 22.71 117.29 22.54 125.07 20.55 125.07 20.35 118.82"/>
  <path class="cls-2" d="m512.13,120.14v4.45l-14.76,4.9-21.82-19.94.71.38c11.08,5.92,23.38,9.39,35.87,10.21Z"/>
</svg>